<svg width="21" height="21" viewBox="0 0 21 21" fill="none" xmlns="http://www.w3.org/2000/svg">
<path d="M17.8983 16.9667C9.39138 21.0153 4.1119 17.628 0.732343 15.5706C0.523217 15.4409 0.167776 15.6009 0.47617 15.9551C1.60207 17.3203 5.29188 20.6108 10.1082 20.6108C14.9278 20.6108 17.795 17.981 18.1536 17.5222C18.5099 17.0673 18.2582 16.8164 17.8982 16.9667H17.8983ZM20.2874 15.6473C20.059 15.3498 18.8983 15.2943 18.1679 15.3841C17.4363 15.4712 16.3382 15.9183 16.4337 16.1868C16.4827 16.2873 16.5826 16.2422 17.0852 16.1971C17.5892 16.1468 19.0009 15.9686 19.2951 16.3531C19.5906 16.7404 18.8448 18.5849 18.7086 18.8824C18.577 19.1799 18.7589 19.2566 19.0061 19.0584C19.2499 18.8604 19.6912 18.3475 19.9874 17.6216C20.2816 16.8918 20.461 15.8738 20.2873 15.6473H20.2874Z" fill="#FF9900"/>
<path fill-rule="evenodd" clip-rule="evenodd" d="M12.1784 8.70551C12.1784 9.7678 12.2053 10.6537 11.6684 11.5971C11.235 12.3641 10.5485 12.8358 9.78155 12.8358C8.73454 12.8358 8.12479 12.0381 8.12479 10.8608C8.12479 8.53673 10.2072 8.11492 12.1784 8.11492V8.70551ZM14.9281 15.3516C14.7479 15.5126 14.4871 15.5242 14.2839 15.4168C13.3788 14.6652 13.2177 14.3162 12.7192 13.599C11.2235 15.1254 10.165 15.5817 8.22454 15.5817C5.93119 15.5817 4.14404 14.1665 4.14404 11.3325C4.14404 9.11972 5.34447 7.61251 7.05095 6.87625C8.53132 6.22422 10.5984 6.10919 12.1784 5.929V5.57615C12.1784 4.92799 12.2282 4.16101 11.8486 3.60113C11.5149 3.09873 10.8783 2.89163 10.3184 2.89163C9.27914 2.89163 8.35105 3.42467 8.12479 4.52914C8.07871 4.77465 7.89852 5.01627 7.6531 5.02775L5.0069 4.74401C4.78452 4.69405 4.53909 4.51387 4.60045 4.17249C5.2102 0.966489 8.10555 0 10.698 0C12.0249 0 13.7583 0.352854 14.8053 1.35766C16.1323 2.59633 16.0057 4.2492 16.0057 6.04783V10.297C16.0057 11.5741 16.5349 12.134 17.0334 12.8243C17.2098 13.0698 17.2482 13.3651 17.0258 13.5491C16.4697 14.0131 15.4802 14.8761 14.9357 15.3593L14.928 15.3516" fill="white"/>
<path d="M17.8983 16.9667C9.39138 21.0153 4.1119 17.628 0.732343 15.5706C0.523217 15.4409 0.167776 15.6009 0.47617 15.9551C1.60207 17.3203 5.29188 20.6108 10.1082 20.6108C14.9278 20.6108 17.795 17.981 18.1536 17.5222C18.5099 17.0673 18.2582 16.8164 17.8982 16.9667H17.8983ZM20.2874 15.6473C20.059 15.3498 18.8983 15.2943 18.1679 15.3841C17.4363 15.4712 16.3382 15.9183 16.4337 16.1868C16.4827 16.2873 16.5826 16.2422 17.0852 16.1971C17.5892 16.1468 19.0009 15.9686 19.2951 16.3531C19.5906 16.7404 18.8448 18.5849 18.7086 18.8824C18.577 19.1799 18.7589 19.2566 19.0061 19.0584C19.2499 18.8604 19.6912 18.3475 19.9874 17.6216C20.2816 16.8918 20.461 15.8738 20.2873 15.6473H20.2874Z" fill="#FF9900"/>
<path fill-rule="evenodd" clip-rule="evenodd" d="M12.1784 8.70551C12.1784 9.7678 12.2053 10.6537 11.6684 11.5971C11.235 12.3641 10.5485 12.8358 9.78155 12.8358C8.73454 12.8358 8.12479 12.0381 8.12479 10.8608C8.12479 8.53673 10.2072 8.11492 12.1784 8.11492V8.70551ZM14.9281 15.3516C14.7479 15.5126 14.4871 15.5242 14.2839 15.4168C13.3788 14.6652 13.2177 14.3162 12.7192 13.599C11.2235 15.1254 10.165 15.5817 8.22454 15.5817C5.93119 15.5817 4.14404 14.1665 4.14404 11.3325C4.14404 9.11972 5.34447 7.61251 7.05095 6.87625C8.53132 6.22422 10.5984 6.10919 12.1784 5.929V5.57615C12.1784 4.92799 12.2282 4.16101 11.8486 3.60113C11.5149 3.09873 10.8783 2.89163 10.3184 2.89163C9.27914 2.89163 8.35105 3.42467 8.12479 4.52914C8.07871 4.77465 7.89852 5.01627 7.6531 5.02775L5.0069 4.74401C4.78452 4.69405 4.53909 4.51387 4.60045 4.17249C5.2102 0.966489 8.10555 0 10.698 0C12.0249 0 13.7583 0.352854 14.8053 1.35766C16.1323 2.59633 16.0057 4.2492 16.0057 6.04783V10.297C16.0057 11.5741 16.5349 12.134 17.0334 12.8243C17.2098 13.0698 17.2482 13.3651 17.0258 13.5491C16.4697 14.0131 15.4802 14.8761 14.9357 15.3593L14.928 15.3516" fill="white"/>
</svg>
